<svg fill="#848484" xmlns="http://www.w3.org/2000/svg" viewBox="0 0 18 16" x="0px" y="0px"><defs><style>.cls-1{fill:none;}</style></defs><title>icn_resolution</title><g data-name="Layer 2"><g data-name="Layer 1"><rect class="cls-1" x="2" y="2" width="6" height="4"></rect><path d="M1,12H13a1,1,0,0,0,1-1V1a1,1,0,0,0-1-1H12a1,1,0,0,0,0,2v8H2a1,1,0,0,0-2,0v1A1,1,0,0,0,1,12Z"></path><path d="M17,0H16a1,1,0,0,0-1,1v.13a1,1,0,0,0,1,1V14H2a1,1,0,0,0-2,0v1a1,1,0,0,0,1,1H17a1,1,0,0,0,1-1V1A1,1,0,0,0,17,0Z"></path><path d="M1,8H9a1,1,0,0,0,1-1V1A1,1,0,0,0,9,0H1A1,1,0,0,0,0,1V7A1,1,0,0,0,1,8ZM2,6V2H8V6Z"></path></g></g></svg>